<svg width="41" height="41" viewBox="0 0 41 41" fill="none" xmlns="http://www.w3.org/2000/svg">
<g id="vuesax/outline/buildings">
<g id="vuesax/outline/buildings_2">
<g id="buildings">
<path id="Vector" d="M22.1663 38.4166H8.83301C4.79967 38.4166 2.58301 36.1999 2.58301 32.1666V18.8333C2.58301 14.7999 4.79967 12.5833 8.83301 12.5833H17.1663C17.8497 12.5833 18.4163 13.1499 18.4163 13.8333V32.1666C18.4163 34.7999 19.533 35.9166 22.1663 35.9166C22.8497 35.9166 23.4163 36.4833 23.4163 37.1666C23.4163 37.8499 22.8497 38.4166 22.1663 38.4166ZM8.83301 15.0833C6.19967 15.0833 5.08301 16.1999 5.08301 18.8333V32.1666C5.08301 34.7999 6.19967 35.9166 8.83301 35.9166H16.833C16.233 34.9333 15.9163 33.6833 15.9163 32.1666V15.0833H8.83301Z" fill="#2562A0"/>
<path id="Vector_2" d="M17.1663 15.0834H8.83301C8.14967 15.0834 7.58301 14.5167 7.58301 13.8334V10.5001C7.58301 7.96675 9.63301 5.91675 12.1663 5.91675H17.3496C17.733 5.91675 18.0997 6.10004 18.333 6.40004C18.5664 6.71671 18.6497 7.11675 18.5497 7.48342C18.4497 7.85009 18.4163 8.26675 18.4163 8.83341V13.8334C18.4163 14.5167 17.8497 15.0834 17.1663 15.0834ZM10.083 12.5834H15.9163V8.83341C15.9163 8.68341 15.9163 8.55008 15.9163 8.41675H12.1663C11.0163 8.41675 10.083 9.35008 10.083 10.5001V12.5834Z" fill="#2562A0"/>
<path id="Vector_3" d="M23.833 23.4166C23.1497 23.4166 22.583 22.8499 22.583 22.1666V13.8333C22.583 13.1499 23.1497 12.5833 23.833 12.5833C24.5163 12.5833 25.083 13.1499 25.083 13.8333V22.1666C25.083 22.8499 24.5163 23.4166 23.833 23.4166Z" fill="#2562A0"/>
<path id="Vector_4" d="M30.5 23.4166C29.8167 23.4166 29.25 22.8499 29.25 22.1666V13.8333C29.25 13.1499 29.8167 12.5833 30.5 12.5833C31.1833 12.5833 31.75 13.1499 31.75 13.8333V22.1666C31.75 22.8499 31.1833 23.4166 30.5 23.4166Z" fill="#2562A0"/>
<path id="Vector_5" d="M30.4997 38.4166H23.833C23.1497 38.4166 22.583 37.8499 22.583 37.1666V30.4999C22.583 28.8999 23.8997 27.5833 25.4997 27.5833H28.833C30.433 27.5833 31.7497 28.8999 31.7497 30.4999V37.1666C31.7497 37.8499 31.183 38.4166 30.4997 38.4166ZM25.083 35.9166H29.2497V30.4999C29.2497 30.2666 29.0663 30.0833 28.833 30.0833H25.4997C25.2663 30.0833 25.083 30.2666 25.083 30.4999V35.9166Z" fill="#2562A0"/>
<path id="Vector_6" d="M10.5 30.0834C9.81667 30.0834 9.25 29.5167 9.25 28.8334V22.1667C9.25 21.4834 9.81667 20.9167 10.5 20.9167C11.1833 20.9167 11.75 21.4834 11.75 22.1667V28.8334C11.75 29.5167 11.1833 30.0834 10.5 30.0834Z" fill="#2562A0"/>
<path id="Vector_7" d="M32.167 38.4166H22.167C18.1337 38.4166 15.917 36.1999 15.917 32.1666V8.83325C15.917 4.79992 18.1337 2.58325 22.167 2.58325H32.167C36.2003 2.58325 38.417 4.79992 38.417 8.83325V32.1666C38.417 36.1999 36.2003 38.4166 32.167 38.4166ZM22.167 5.08325C19.5337 5.08325 18.417 6.19992 18.417 8.83325V32.1666C18.417 34.7999 19.5337 35.9166 22.167 35.9166H32.167C34.8003 35.9166 35.917 34.7999 35.917 32.1666V8.83325C35.917 6.19992 34.8003 5.08325 32.167 5.08325H22.167Z" fill="#2562A0"/>
</g>
</g>
</g>
</svg>
