<svg width="32" height="32" viewBox="0 0 32 32" fill="none" xmlns="http://www.w3.org/2000/svg">
<g id="brandico:linkedin" clip-path="url(#clip0_635_3087)">
<path id="Vector" d="M7.26427 32V10.4097H0.404711V32H7.26427ZM3.83538 7.4601C6.22742 7.4601 7.71636 5.80221 7.71636 3.7304C7.67179 1.61187 6.22751 0 3.88077 0C1.53439 0 0 1.6119 0 3.7304C0 5.8023 1.48857 7.4601 3.79059 7.4601H3.83516H3.83538ZM11.061 32H17.9206V19.9429C17.9206 19.2976 17.9651 18.653 18.1463 18.1917C18.6422 16.9025 19.7708 15.5672 21.6657 15.5672C24.1479 15.5672 25.1409 17.5471 25.1409 20.4495V31.9999H32.0001V19.6202C32.0001 12.9884 28.6159 9.90278 24.1027 9.90278C20.4023 9.90278 18.7775 12.0667 17.8749 13.5405H17.9207V10.4092H11.0612C11.1512 12.4351 11.0612 31.9996 11.0612 31.9996L11.061 32Z" fill="white"/>
</g>
<defs>
<clipPath id="clip0_635_3087">
<rect width="32" height="32" fill="white"/>
</clipPath>
</defs>
</svg>
