<svg width="16" height="16" viewBox="0 0 16 16" fill="none" xmlns="http://www.w3.org/2000/svg">
<g id="buildings-2">
<g id="vuesax/linear/buildings-2">
<g id="buildings-2_2">
<path id="Vector" d="M4.46635 11.9999H2.76636C1.81302 11.9999 1.33301 11.5199 1.33301 10.5666V2.7666C1.33301 1.81327 1.81302 1.33325 2.76636 1.33325H5.63302C6.58635 1.33325 7.06632 1.81327 7.06632 2.7666V3.99992" stroke="#90A2B2" stroke-miterlimit="10" stroke-linecap="round" stroke-linejoin="round"/>
<path id="Vector_2" d="M11.5801 5.61332V13.0533C11.5801 14.1267 11.0468 14.6667 9.97347 14.6667H6.08012C5.00679 14.6667 4.4668 14.1267 4.4668 13.0533V5.61332C4.4668 4.53999 5.00679 4 6.08012 4H9.97347C11.0468 4 11.5801 4.53999 11.5801 5.61332Z" stroke="#90A2B2" stroke-miterlimit="10" stroke-linecap="round" stroke-linejoin="round"/>
<path id="Vector_3" d="M8.93359 3.99992V2.7666C8.93359 1.81327 9.41357 1.33325 10.3669 1.33325H13.2336C14.1869 1.33325 14.6669 1.81327 14.6669 2.7666V10.5666C14.6669 11.5199 14.1869 11.9999 13.2336 11.9999H11.5802" stroke="#90A2B2" stroke-width="1.5" stroke-miterlimit="10" stroke-linecap="round" stroke-linejoin="round"/>
<path id="Vector_4" d="M6.66699 7.33325H9.33366" stroke="#90A2B2" stroke-width="1.5" stroke-miterlimit="10" stroke-linecap="round" stroke-linejoin="round"/>
<path id="Vector_5" d="M6.66699 9.33325H9.33366" stroke="#90A2B2" stroke-width="1.5" stroke-miterlimit="10" stroke-linecap="round" stroke-linejoin="round"/>
<path id="Vector_6" d="M8 14.6667V12.6667" stroke="#90A2B2" stroke-width="1.5" stroke-miterlimit="10" stroke-linecap="round" stroke-linejoin="round"/>
</g>
</g>
</g>
</svg>
