<svg width="40" height="41" viewBox="0 0 40 41" fill="none" xmlns="http://www.w3.org/2000/svg">
<g id="grommet-icons:vm-maintenance">
<path id="Vector" d="M31.6663 17.1666V3.83325H11.6663V23.8333H23.333V12.1666H3.33301V32.1666H16.6663M23.333 38.8333L33.333 28.8333M34.9997 23.8333C34.3404 23.8333 33.6959 24.0287 33.1478 24.395C32.5996 24.7613 32.1724 25.2819 31.9201 25.891C31.6678 26.5001 31.6018 27.1703 31.7304 27.8169C31.859 28.4635 32.1765 29.0574 32.6427 29.5236C33.1088 29.9898 33.7028 30.3073 34.3494 30.4359C34.996 30.5645 35.6662 30.4985 36.2753 30.2462C36.8844 29.9939 37.405 29.5667 37.7712 29.0185C38.1375 28.4703 38.333 27.8259 38.333 27.1666" stroke="#2562A0" stroke-width="2"/>
</g>
</svg>
