<svg width="138" height="18" viewBox="0 0 138 18" fill="none" xmlns="http://www.w3.org/2000/svg">
<g id="Group">
<path id="Vector" d="M59.5614 11.7542H68.6238L63.8319 4.04474L55.0371 17.9838H51.0345L61.7319 1.24002C62.197 0.563504 62.9722 0.154785 63.8319 0.154785C64.6634 0.154785 65.4386 0.549418 65.8896 1.21184L76.6293 17.9838H72.6266L70.738 14.869H61.5627L59.5614 11.7542ZM101.139 14.869V0.323914H97.7423V16.2925C97.7423 16.7294 97.9114 17.1522 98.2356 17.4764C98.5597 17.8006 98.9966 17.9838 99.4758 17.9838H114.965L116.967 14.869H101.139ZM44.9458 12.2616C48.2439 12.2616 50.9218 9.59782 50.9218 6.2998C50.9218 3.00179 48.2439 0.323914 44.9458 0.323914H30.0864V17.9838H33.4817V3.43871H44.7203C46.2989 3.43871 47.5673 4.72126 47.5673 6.2998C47.5673 7.87834 46.2989 9.1609 44.7203 9.1609L35.1448 9.1468L45.284 17.9838H50.217L43.3955 12.2616H44.9458ZM9.18495 17.9838C4.30975 17.9838 0.353516 14.0375 0.353516 9.1609C0.353516 4.28435 4.30975 0.323914 9.18495 0.323914H19.4496C24.3261 0.323914 28.2796 4.28435 28.2796 9.1609C28.2796 14.0375 24.3261 17.9838 19.4496 17.9838H9.18495ZM19.2213 14.869C22.3798 14.869 24.9379 12.318 24.9379 9.1609C24.9379 6.00383 22.3798 3.43871 19.2213 3.43871H9.41181C6.25474 3.43871 3.6952 6.00383 3.6952 9.1609C3.6952 12.318 6.25474 14.869 9.41181 14.869H19.2213ZM83.7186 17.9838C78.8421 17.9838 74.8817 14.0375 74.8817 9.1609C74.8817 4.28435 78.8421 0.323914 83.7186 0.323914H95.91L93.9228 3.43871H83.9441C80.787 3.43871 78.222 6.00383 78.222 9.1609C78.222 12.318 80.787 14.869 83.9441 14.869H96.1919L94.1905 17.9838H83.7186ZM125.254 14.869C122.646 14.869 120.434 13.1213 119.757 10.7112H134.274L136.275 7.59645H119.757C120.434 5.20046 122.646 3.43871 125.254 3.43871H135.218L137.234 0.323914H125.028C120.152 0.323914 116.191 4.28435 116.191 9.1609C116.191 14.0375 120.152 17.9838 125.028 17.9838H135.5L137.502 14.869H125.254Z" fill="#90A2B2"/>
</g>
</svg>
