<svg width="138" height="26" viewBox="0 0 138 26" fill="none" xmlns="http://www.w3.org/2000/svg">
<g id="Group">
<g id="Group_2">
<path id="Vector" d="M3.30726 20.3182C2.27856 20.3204 1.32822 19.7689 0.819739 18.8747C0.318586 17.9859 0.348638 16.8932 0.897881 16.0334L6.02052 7.98907C6.5543 7.1089 7.52037 6.58399 8.54929 6.61508C9.57745 6.63972 10.5127 7.21619 10.9966 8.12365C11.4742 9.02663 11.4145 10.113 10.8425 10.9606L5.72315 19.0049C5.19552 19.8271 4.28418 20.3225 3.30726 20.3182Z" fill="#90A2B2"/>
<path id="Vector_2" d="M12.0951 20.3178C11.0618 20.3178 10.1111 19.7654 9.61188 18.8776C9.11183 17.9913 9.14189 16.9013 9.69002 16.0439L14.8029 8.01802C15.329 7.12521 16.2979 6.58798 17.3338 6.61472C18.3757 6.63751 19.3199 7.22032 19.7975 8.13198C20.2717 9.04364 20.2023 10.1365 19.613 10.982L14.5012 19.0078C13.9752 19.8265 13.0681 20.3203 12.0951 20.3178Z" fill="#90A2B2"/>
<path id="Vector_3" d="M20.6832 20.3861C22.1397 20.3861 23.3205 19.2301 23.3205 17.8041C23.3205 16.3781 22.1397 15.2222 20.6832 15.2222C19.2267 15.2222 18.0459 16.3781 18.0459 17.8041C18.0459 19.2301 19.2267 20.3861 20.6832 20.3861Z" fill="#90A2B2"/>
</g>
<path id="Vector_4" d="M135.256 15.3707C136.053 15.3707 136.529 15.9373 136.529 16.8652V20.0451H137.611V16.7925C137.611 15.2144 136.868 14.2995 135.47 14.2995C134.923 14.2995 134.055 14.4493 133.537 15.4554C133.292 14.8508 132.734 14.4297 132.086 14.3592C131.886 14.3225 131.681 14.3105 131.478 14.3234C131.033 14.3592 130.241 14.636 129.945 15.2633V14.42H128.861V20.0451H129.945V17.0095C129.945 15.8287 130.717 15.3707 131.491 15.3707C132.216 15.3707 132.693 15.9253 132.693 16.8533V20.0451H133.769V17.0095C133.769 16.0697 134.334 15.3599 135.256 15.3707ZM124.886 19.1053C125.381 19.1161 125.858 18.9186 126.205 18.5604C126.552 18.2023 126.736 17.715 126.718 17.2147C126.718 16.0816 125.884 15.3707 124.886 15.3707C123.886 15.3707 123.054 16.0816 123.054 17.2147C123.034 17.7139 123.219 18.2001 123.564 18.5572C123.909 18.9153 124.385 19.1139 124.877 19.1053H124.886ZM124.886 20.1602C123.304 20.1602 121.983 18.9913 121.983 17.2081C121.983 15.425 123.304 14.293 124.886 14.293C126.468 14.293 127.8 15.425 127.8 17.2081C127.8 18.9913 126.461 20.1656 124.878 20.1656L124.886 20.1602ZM116.41 17.2081L116.399 17.2147C116.399 15.4315 117.754 14.2995 119.348 14.293C120.157 14.2774 120.935 14.6055 121.489 15.196L120.669 15.8949C120.316 15.5493 119.841 15.3586 119.348 15.3653C118.349 15.3653 117.481 16.0762 117.481 17.2081C117.481 17.9733 117.936 18.6625 118.634 18.9555C119.331 19.2485 120.135 19.0857 120.669 18.5452L121.501 19.2442C120.945 19.8408 120.163 20.1737 119.348 20.1602C117.766 20.1602 116.41 18.9913 116.41 17.2081ZM112.944 18.9653C112.942 18.7666 113.019 18.5752 113.158 18.4332C113.296 18.2911 113.486 18.21 113.685 18.2077C113.883 18.21 114.073 18.2911 114.212 18.4332C114.35 18.5752 114.427 18.7666 114.425 18.9653C114.405 19.3606 114.08 19.672 113.685 19.6761C113.289 19.672 112.964 19.3606 112.944 18.9653Z" fill="#90A2B2"/>
<path id="Vector_5" d="M115.905 7.26952H112.051L109.35 14.2339L106.663 7.26952H102.809L107.494 18.2745L104.58 25.5504H108.406L115.905 7.26952ZM92.4671 13.3906C92.4671 15.1488 94.0039 16.3058 95.5136 16.3058C96.9972 16.3058 98.4548 15.2292 98.4548 13.3896C98.4548 11.55 96.9972 10.4723 95.5136 10.4723C94.0039 10.4723 92.4671 11.6303 92.4671 13.3896V13.3906ZM98.4548 19.5356V18.1432C97.6733 19.3262 95.85 19.7733 94.9145 19.7733C91.817 19.7733 88.7185 17.3314 88.7185 13.3896C88.7185 9.44881 91.8159 7.00688 94.9145 7.00688C95.6948 7.00688 97.5181 7.26735 98.4548 8.63483V7.27386H102.047V19.5378L98.4548 19.5367V19.5356ZM87.6961 19.5356H84.1038V18.0119C83.5036 19.1406 82.0482 19.7983 80.5374 19.7983C77.4129 19.7983 74.6529 17.3032 74.6529 13.4395C74.6529 9.50308 77.4129 7.0047 80.5374 7.0047C82.046 7.0047 83.5058 7.63418 84.1038 8.76399V0.588379H87.6961V19.5356ZM84.0256 13.3624C84.0256 11.5239 82.6983 10.4462 81.2147 10.4462C79.6779 10.4462 78.4016 11.6021 78.4016 13.3624C78.4016 15.1792 79.6779 16.3297 81.2136 16.3297C82.7254 16.3318 84.0256 15.1228 84.0256 13.3624ZM65.7708 13.0455C65.7708 11.181 66.7345 10.5504 68.0098 10.5504C69.2329 10.5504 70.1185 11.3644 70.1185 12.9923V19.5335H73.7369V12.2055C73.7369 8.71298 72.0178 7.0047 69.2839 7.0047C67.8524 7.0047 66.4209 7.81868 65.7697 9.05376V7.26952H62.1535V19.5335H65.7708V13.0455ZM54.8059 19.744C51.3699 19.744 48.5036 17.2229 48.5036 13.3613C48.5036 9.49765 51.3666 7.00145 54.8059 7.00145C58.2453 7.00145 61.1333 9.49765 61.1333 13.3613C61.1333 17.225 58.242 19.7451 54.8059 19.7451V19.744ZM54.8059 16.1734C56.3145 16.1734 57.5659 15.0685 57.5659 13.3624C57.5659 11.7073 56.3156 10.5775 54.8059 10.5775C54.0713 10.566 53.3642 10.8568 52.8502 11.3817C52.3333 11.9094 52.0525 12.6241 52.0721 13.3624C52.0731 15.0707 53.3223 16.1734 54.8059 16.1734ZM42.0167 10.5515C43.0836 10.5515 44.0213 11.3926 44.0213 12.9934V19.5356H47.6136V12.5702C47.6136 8.86709 45.8131 7.00253 42.9273 7.00253C42.0699 7.00253 40.4549 7.26301 39.2828 9.18183C38.6056 7.76333 37.3043 7.0275 35.3811 7.0275C34.0174 7.02056 32.7756 7.81165 32.2055 9.05051V7.27061H28.585V19.5346H32.2023V13.0455C32.2023 11.181 33.2181 10.5504 34.311 10.5504C35.3529 10.5504 36.2885 11.3644 36.3156 12.9142V19.5346H39.934V13.0455C39.934 11.2624 40.8717 10.5526 42.0167 10.5526V10.5515Z" fill="#90A2B2"/>
</g>
</svg>
