<svg width="138" height="30" viewBox="0 0 138 30" fill="none" xmlns="http://www.w3.org/2000/svg">
<g id="Group">
<path id="Vector" d="M136.033 10.7537C137.108 11.6236 135.97 12.9996 135.021 12.3037C133.85 11.5604 131.193 11.2124 130.861 12.8572C130.434 15.4512 137.314 13.9645 137.203 18.1715C137.093 22.189 131.272 22.2838 129.09 20.4807C128.568 20.0538 128.583 19.3578 128.868 18.9307C129.279 18.5196 129.738 18.3772 130.276 18.82C131.573 19.7057 134.91 20.37 135.147 18.1241C134.942 15.7833 128.362 17.1909 128.852 12.6991C129.216 9.63074 133.85 9.07712 136.033 10.7537ZM125.657 11.3705V17.096C125.657 23.0113 116.12 23.0113 116.12 17.096V11.3705C116.12 9.94713 118.192 9.8838 118.192 11.3705V17.096C118.192 20.2118 123.585 20.4017 123.585 17.096V11.3705C123.585 9.96283 125.657 9.85214 125.657 11.3705ZM60.3493 9.9313C63.1171 10.0735 66.0115 11.9873 66.0115 15.7359C66.0115 19.4843 63.1171 21.4298 60.3493 21.4298C57.4233 21.5563 54.3865 19.6108 54.3865 15.7359C54.3865 11.845 57.4233 9.9313 60.3493 9.9313ZM74.2838 10.3266C78.3012 10.3266 79.1236 15.7042 75.7706 17.0486L77.8741 19.6108C78.6966 20.8288 77.0517 21.9991 76.1027 20.7971L73.7145 17.3808H71.2313V20.2435C71.2313 21.6195 69.1277 21.667 69.1277 20.2752V11.2915C69.1277 10.7378 69.5548 10.3266 70.0767 10.3266H74.2838ZM41.5115 10.1844C41.9702 10.1844 42.2391 10.4532 42.508 10.7537L45.9875 15.4512L49.5937 10.5797C50.1156 9.93131 51.3967 10.1844 51.3967 11.2756V20.1803C51.3967 20.8761 50.9538 21.2716 50.4477 21.2716C49.8783 21.2716 49.4355 20.8761 49.4355 20.1803V14.3282L46.81 17.6497C46.2405 18.3455 45.5289 18.3455 45.0069 17.6497L42.6503 14.3282V20.1803C42.6503 20.8761 42.0809 21.2716 41.5115 21.2716C41.0054 21.2716 40.5625 20.8761 40.5625 20.1803V11.2756C40.5625 10.4533 41.2584 10.1844 41.5115 10.1844ZM85.7511 10.1844C87.8072 10.1844 89.6577 11.5604 89.6577 14.2017C89.6577 16.7006 87.8072 18.0925 85.7511 18.0925H83.1097V20.1803C83.1097 20.8761 82.6669 21.2716 82.0975 21.2716C81.5756 21.2716 81.022 20.8761 81.022 20.1803V11.2756C81.022 10.7537 81.4332 10.1844 82.0975 10.1844H85.7511ZM100.856 10.3266C101.41 10.3266 101.837 10.7378 101.837 11.3073V20.291C101.837 20.8445 101.41 21.2716 100.856 21.2716C100.287 21.2716 99.7807 20.8445 99.7807 20.291V16.8272H94.6246V20.291C94.6246 20.8445 94.2133 21.2716 93.6597 21.2716C92.948 21.2716 92.5368 20.8445 92.5368 20.291V11.3073C92.5368 10.7379 92.948 10.3266 93.6597 10.3266C94.2133 10.3266 94.6246 10.7378 94.6246 11.3073V14.7553H99.7807V11.3073C99.7807 10.7379 100.287 10.3266 100.856 10.3266ZM111.865 10.3266C113.32 10.3266 113.288 12.3827 111.865 12.3827H107.31V14.7553H111.295C112.703 14.7553 112.703 16.8272 111.295 16.8272H107.31V19.1996H112.134C113.573 19.1996 113.684 21.2716 112.134 21.2716H106.187C105.633 21.2716 105.206 20.8445 105.206 20.291V11.3073C105.206 10.7379 105.633 10.3266 106.187 10.3266H111.865ZM60.1753 11.9873C58.4039 11.9873 56.4743 13.2369 56.4743 15.7359C56.4743 18.219 58.4039 19.4843 60.1753 19.4843C61.9942 19.4843 63.9396 18.219 63.9396 15.7359C63.9396 13.2369 61.9942 11.9873 60.1753 11.9873ZM85.7511 12.1772H83.1097V16.1155H85.7511C86.8107 16.1155 87.649 15.1823 87.649 14.2017C87.649 13.0946 86.8107 12.1772 85.7511 12.1772ZM74.2838 12.2404H71.2313V15.5619H74.2838C76.3399 15.5619 76.4665 12.2404 74.2838 12.2404Z" fill="#90A2B2"/>
<g id="Group_2">
<path id="Vector_2" d="M28.0171 18.6299C26.4751 24.8249 20.8332 29.2325 14.1884 29.2325C7.51349 29.2325 1.9202 24.5641 0.441406 18.3435C2.21958 18.3435 3.88192 18.3516 4.65366 18.3516C5.01772 18.3516 5.08842 18.3579 5.10949 18.3564C5.69018 18.3278 6.4183 18.1362 6.9027 16.9582L8.74858 12.1296L12.848 21.9998C13.2166 22.7866 13.8319 22.7308 14.1989 22.7308H14.2335C14.9496 22.7308 15.261 22.4799 15.5333 21.9609L20.1638 12.2036L21.7434 16.601L21.8397 16.8139C22.1736 17.5466 22.4139 18.2702 23.2404 18.3648C23.4108 18.3843 25.3893 18.3497 28.0566 18.3497C28.0566 18.3497 28.0566 18.3668 28.0171 18.6299Z" fill="#90A2B2"/>
<path id="Vector_3" d="M28.4698 14.9811C28.4698 15.0549 28.4698 15.2403 28.4683 15.2403H28.4653H24.208L21.7242 8.30196C21.503 7.78596 21.1706 7.01241 20.2018 7.01241C19.609 7.01241 19.0735 7.50193 18.7696 8.30978L14.267 18.7392L9.93288 8.37304C9.50864 7.45236 9.21529 7.01936 8.36682 7.01936C7.79064 7.01936 7.36791 7.23161 6.90757 8.32228L4.33509 15.3433L0.0611488 15.3388C0.0581377 15.232 0.0566406 15.1252 0.0566406 15.0184C0.0566406 7.21367 6.38405 0.906006 14.1888 0.906006C21.9935 0.906006 28.4698 7.17643 28.4698 14.9811Z" fill="#90A2B2"/>
</g>
</g>
</svg>
