<svg width="135" height="22" viewBox="0 0 135 22" fill="none" xmlns="http://www.w3.org/2000/svg">
<g id="Group">
<g id="Group_2">
<path id="Vector" d="M16.9205 21.7498V16.1895H10.8652C9.21854 16.1895 7.69319 17.0539 6.8498 18.4652L4.88672 21.7498H16.9205Z" fill="#90A2B2"/>
<path id="Vector_2" d="M-2.35156 0.388672V5.94906H13.5974L16.9206 0.388672H-2.35156Z" fill="#90A2B2"/>
<path id="Vector_3" d="M5.28148 9.07888L-2.33398 21.7499H4.15421L13.2609 6.59082H9.67814C7.87602 6.59082 6.20646 7.53562 5.28148 9.07888Z" fill="#90A2B2"/>
</g>
<path id="Vector_4" d="M30.7258 16.4131C27.4632 16.4131 25.0625 14.0416 25.0625 10.8592C25.0625 7.70744 27.4786 5.30535 30.7412 5.30535C34.0037 5.30535 36.4199 7.73804 36.4199 10.8592C36.4199 14.011 33.9883 16.4131 30.7258 16.4131ZM30.7412 14.47C32.8034 14.47 34.2807 12.94 34.2807 10.8592C34.2807 8.80903 32.8034 7.24844 30.7412 7.24844C28.6636 7.24844 27.1862 8.80903 27.1862 10.8592C27.1862 12.94 28.6636 14.47 30.7412 14.47ZM38.6046 19.7332V8.16644H40.5744V9.19153H40.6821C40.8976 8.85493 41.6363 7.96754 43.1137 7.96754C45.3759 7.96754 46.9302 9.65053 46.9302 12.1597C46.9302 14.6689 45.3913 16.4131 43.1752 16.4131C41.744 16.4131 40.9745 15.6175 40.7129 15.1738H40.6052V19.7332H38.6046ZM42.7289 14.6077C44.0216 14.6077 44.8988 13.6132 44.8988 12.1903C44.8988 10.7215 44.0216 9.77293 42.7135 9.77293C41.3901 9.77293 40.559 10.8286 40.559 12.1903C40.559 13.6897 41.4824 14.6077 42.7289 14.6077ZM52.6545 16.4131C50.2692 16.4131 48.5763 14.6383 48.5763 12.2362C48.5763 9.69643 50.2845 7.96754 52.6545 7.96754C55.2553 7.96754 56.6711 9.88003 56.6711 12.1444V12.7717H50.5154C50.5769 13.9957 51.4234 14.8219 52.7161 14.8219C53.701 14.8219 54.4551 14.3629 54.7321 13.705H56.5942C56.1941 15.3421 54.7475 16.4131 52.6545 16.4131ZM50.5462 11.3641H54.7629C54.6705 10.2778 53.8241 9.55873 52.6545 9.55873C51.5311 9.55873 50.6693 10.3543 50.5462 11.3641ZM58.8251 16.2142V8.16644H60.7334V9.14563H60.8411C61.1643 8.54893 61.9645 7.96754 63.1187 7.96754C64.9347 7.96754 66.0427 9.23743 66.0427 10.951V16.2142H64.0421V11.4712C64.0421 10.492 63.4111 9.83413 62.4878 9.83413C61.5182 9.83413 60.8257 10.5991 60.8257 11.6089V16.2142H58.8251ZM68.0274 16.2142V14.3935L73.6291 7.37084V7.26374H68.2274V5.50425H76.1837V7.30964L70.582 14.3323V14.4547H76.2145V16.2142H68.0274ZM81.631 16.4131C79.2456 16.4131 77.5528 14.6383 77.5528 12.2362C77.5528 9.69643 79.261 7.96754 81.631 7.96754C84.2318 7.96754 85.6476 9.88003 85.6476 12.1444V12.7717H79.4919C79.5534 13.9957 80.3998 14.8219 81.6926 14.8219C82.6775 14.8219 83.4316 14.3629 83.7086 13.705H85.5707C85.1706 15.3421 83.724 16.4131 81.631 16.4131ZM79.5227 11.3641H83.7393C83.647 10.2778 82.8006 9.55873 81.631 9.55873C80.5076 9.55873 79.6458 10.3543 79.5227 11.3641ZM87.8016 19.7332V8.16644H89.7714V9.19153H89.8791C90.0946 8.85493 90.8333 7.96754 92.3107 7.96754C94.5729 7.96754 96.1272 9.65053 96.1272 12.1597C96.1272 14.6689 94.5883 16.4131 92.3722 16.4131C90.941 16.4131 90.1715 15.6175 89.9099 15.1738H89.8022V19.7332H87.8016ZM91.9259 14.6077C93.2186 14.6077 94.0958 13.6132 94.0958 12.1903C94.0958 10.7215 93.2186 9.77293 91.9105 9.77293C90.5871 9.77293 89.756 10.8286 89.756 12.1903C89.756 13.6897 90.6794 14.6077 91.9259 14.6077ZM98.2812 19.7332V8.16644H100.251V9.19153H100.359C100.574 8.85493 101.313 7.96754 102.79 7.96754C105.052 7.96754 106.607 9.65053 106.607 12.1597C106.607 14.6689 105.068 16.4131 102.852 16.4131C101.421 16.4131 100.651 15.6175 100.39 15.1738H100.282V19.7332H98.2812ZM102.406 14.6077C103.698 14.6077 104.575 13.6132 104.575 12.1903C104.575 10.7215 103.698 9.77293 102.39 9.77293C101.067 9.77293 100.236 10.8286 100.236 12.1903C100.236 13.6897 101.159 14.6077 102.406 14.6077ZM112.331 16.4131C109.946 16.4131 108.253 14.6383 108.253 12.2362C108.253 9.69643 109.961 7.96754 112.331 7.96754C114.932 7.96754 116.348 9.88003 116.348 12.1444V12.7717H110.192C110.254 13.9957 111.1 14.8219 112.393 14.8219C113.378 14.8219 114.132 14.3629 114.409 13.705H116.271C115.871 15.3421 114.424 16.4131 112.331 16.4131ZM110.223 11.3641H114.439C114.347 10.2778 113.501 9.55873 112.331 9.55873C111.208 9.55873 110.346 10.3543 110.223 11.3641ZM120.472 16.2142C119.056 16.2142 118.255 15.3727 118.255 13.9498V4.73926H120.256V13.7662C120.256 14.2252 120.487 14.47 120.902 14.47H121.226V16.2142H120.472ZM124.149 7.09544C123.426 7.09544 122.918 6.65175 122.918 5.93265C122.918 5.24415 123.426 4.78516 124.149 4.78516C124.872 4.78516 125.38 5.24415 125.38 5.93265C125.38 6.65175 124.872 7.09544 124.149 7.09544ZM123.149 16.2142V8.16644H125.149V16.2142H123.149ZM127.58 16.2142V8.16644H129.489V9.14563H129.596C129.919 8.54893 130.72 7.96754 131.874 7.96754C133.69 7.96754 134.798 9.23743 134.798 10.951V16.2142H132.797V11.4712C132.797 10.492 132.166 9.83413 131.243 9.83413C130.273 9.83413 129.581 10.5991 129.581 11.6089V16.2142H127.58Z" fill="#90A2B2"/>
</g>
</svg>
