<svg width="32" height="32" viewBox="0 0 32 32" fill="none" xmlns="http://www.w3.org/2000/svg">
<g id="instagram">
<g id="vuesax/bold/instagram">
<g id="instagram_2">
<path id="Vector" d="M21.587 2.6665H10.4137C5.56033 2.6665 2.66699 5.55984 2.66699 10.4132V21.5732C2.66699 26.4398 5.56033 29.3332 10.4137 29.3332H21.5737C26.427 29.3332 29.3203 26.4398 29.3203 21.5865V10.4132C29.3337 5.55984 26.4403 2.6665 21.587 2.6665ZM16.0003 21.1732C13.147 21.1732 10.827 18.8532 10.827 15.9998C10.827 13.1465 13.147 10.8265 16.0003 10.8265C18.8537 10.8265 21.1737 13.1465 21.1737 15.9998C21.1737 18.8532 18.8537 21.1732 16.0003 21.1732ZM23.8937 9.17317C23.827 9.33317 23.7337 9.47984 23.6137 9.61317C23.4803 9.73317 23.3337 9.8265 23.1737 9.89317C23.0137 9.95984 22.8403 9.99984 22.667 9.99984C22.307 9.99984 21.9737 9.8665 21.7203 9.61317C21.6003 9.47984 21.507 9.33317 21.4403 9.17317C21.3737 9.01317 21.3337 8.83984 21.3337 8.6665C21.3337 8.49317 21.3737 8.31984 21.4403 8.15984C21.507 7.9865 21.6003 7.85317 21.7203 7.71984C22.027 7.41317 22.4937 7.2665 22.9203 7.35984C23.0137 7.37317 23.0937 7.39984 23.1737 7.43984C23.2537 7.4665 23.3337 7.5065 23.4137 7.55984C23.4803 7.59984 23.547 7.6665 23.6137 7.71984C23.7337 7.85317 23.827 7.9865 23.8937 8.15984C23.9603 8.31984 24.0003 8.49317 24.0003 8.6665C24.0003 8.83984 23.9603 9.01317 23.8937 9.17317Z" fill="white"/>
</g>
</g>
</g>
</svg>
