<svg width="32" height="32" viewBox="0 0 32 32" fill="none" xmlns="http://www.w3.org/2000/svg">
<g id="mdi:twitter">
<path id="Vector" d="M29.947 8.00016C28.9204 8.46683 27.8137 8.7735 26.667 8.92016C27.8404 8.2135 28.747 7.0935 29.1737 5.74683C28.067 6.4135 26.8404 6.88016 25.547 7.14683C24.4937 6.00016 23.0137 5.3335 21.3337 5.3335C18.2004 5.3335 15.6404 7.8935 15.6404 11.0535C15.6404 11.5068 15.6937 11.9468 15.787 12.3602C11.0404 12.1202 6.81371 9.84016 4.00038 6.38683C3.50704 7.22683 3.22704 8.2135 3.22704 9.2535C3.22704 11.2402 4.22704 13.0002 5.77371 14.0002C4.82704 14.0002 3.94704 13.7335 3.17371 13.3335V13.3735C3.17371 16.1468 5.14704 18.4668 7.76038 18.9868C6.92135 19.2164 6.0405 19.2484 5.18704 19.0802C5.54919 20.2168 6.25843 21.2114 7.21507 21.9241C8.17171 22.6368 9.32764 23.0317 10.5204 23.0535C8.49855 24.6541 5.99237 25.5192 3.41371 25.5068C2.96038 25.5068 2.50704 25.4802 2.05371 25.4268C4.58704 27.0535 7.60038 28.0002 10.827 28.0002C21.3337 28.0002 27.107 19.2802 27.107 11.7202C27.107 11.4668 27.107 11.2268 27.0937 10.9735C28.2137 10.1735 29.1737 9.16016 29.947 8.00016Z" fill="white"/>
</g>
</svg>
