<svg width="40" height="41" viewBox="0 0 40 41" fill="none" xmlns="http://www.w3.org/2000/svg">
<g id="mingcute:paint-2-line" clip-path="url(#clip0_635_2964)">
<g id="Group">
<path id="Vector" fill-rule="evenodd" clip-rule="evenodd" d="M5 8.83325C5 7.50717 5.52678 6.2354 6.46447 5.29772C7.40215 4.36004 8.67392 3.83325 10 3.83325H26.6667C27.9927 3.83325 29.2645 4.36004 30.2022 5.29772C31.1399 6.2354 31.6667 7.50717 31.6667 8.83325H33.3333C34.2174 8.83325 35.0652 9.18444 35.6904 9.80956C36.3155 10.4347 36.6667 11.2825 36.6667 12.1666V14.4666C36.6666 16.5332 35.8985 18.5261 34.5117 20.0584C33.1248 21.5906 31.2181 22.5528 29.1617 22.7583L20 23.6749V23.8333C20.8841 23.8333 21.7319 24.1844 22.357 24.8096C22.9821 25.4347 23.3333 26.2825 23.3333 27.1666V33.8333C23.3333 34.7173 22.9821 35.5652 22.357 36.1903C21.7319 36.8154 20.8841 37.1666 20 37.1666H16.6667C15.7826 37.1666 14.9348 36.8154 14.3096 36.1903C13.6845 35.5652 13.3333 34.7173 13.3333 33.8333V27.1666C13.3333 26.2825 13.6845 25.4347 14.3096 24.8096C14.9348 24.1844 15.7826 23.8333 16.6667 23.8333V23.6749C16.6667 22.8483 16.9739 22.0512 17.5285 21.4383C18.0832 20.8254 18.8458 20.4405 19.6683 20.3583L28.8317 19.4416C30.0653 19.318 31.209 18.7405 32.0408 17.8212C32.8727 16.9019 33.3333 15.7064 33.3333 14.4666V12.1666H31.6667C31.6667 13.4927 31.1399 14.7644 30.2022 15.7021C29.2645 16.6398 27.9927 17.1666 26.6667 17.1666H10C8.67392 17.1666 7.40215 16.6398 6.46447 15.7021C5.52678 14.7644 5 13.4927 5 12.1666V8.83325ZM20 27.1666H16.6667V33.8333H20V27.1666ZM10 7.16659C9.55797 7.16659 9.13405 7.34218 8.82149 7.65474C8.50893 7.9673 8.33333 8.39122 8.33333 8.83325V12.1666C8.33333 12.6086 8.50893 13.0325 8.82149 13.3451C9.13405 13.6577 9.55797 13.8333 10 13.8333H26.6667C27.1087 13.8333 27.5326 13.6577 27.8452 13.3451C28.1577 13.0325 28.3333 12.6086 28.3333 12.1666V8.83325C28.3333 8.39122 28.1577 7.9673 27.8452 7.65474C27.5326 7.34218 27.1087 7.16659 26.6667 7.16659H10Z" fill="#2562A0"/>
</g>
</g>
<defs>
<clipPath id="clip0_635_2964">
<rect width="40" height="40" fill="white" transform="translate(0 0.5)"/>
</clipPath>
</defs>
</svg>
