<svg width="40" height="40" viewBox="0 0 40 40" fill="none" xmlns="http://www.w3.org/2000/svg">
<g id="nimbus:ecosystem">
<path id="Vector" d="M27.5 20C27.5018 18.5662 27.0367 17.1709 26.175 16.025L29.5 12.725C30.1502 12.9954 30.8459 13.1396 31.55 13.15C32.187 13.17 32.8217 13.0642 33.4178 12.8388C34.0139 12.6134 34.5597 12.2727 35.0241 11.8362C35.4884 11.3997 35.8622 10.876 36.124 10.2949C36.3859 9.7139 36.5306 9.08696 36.55 8.44995C36.55 7.12387 36.0232 5.8521 35.0855 4.91442C34.1479 3.97674 32.8761 3.44995 31.55 3.44995C30.2239 3.44995 28.9521 3.97674 28.0145 4.91442C27.0768 5.8521 26.55 7.12387 26.55 8.44995C26.5532 9.22327 26.7601 9.98209 27.15 10.65L23.825 13.975C22.6562 13.3207 21.3394 12.9765 20 12.975C18.3462 12.9522 16.7313 13.4767 15.4065 14.4669C14.0817 15.4571 13.1214 16.8574 12.675 18.45H10.95C10.5724 17.5163 9.92172 16.7185 9.08309 16.1609C8.24446 15.6033 7.257 15.3119 6.25 15.325C4.96772 15.2845 3.72163 15.7537 2.78453 16.6299C1.84743 17.5061 1.29565 18.7178 1.25 20C1.2694 20.637 1.41415 21.2639 1.67598 21.8449C1.93781 22.426 2.31158 22.9497 2.77594 23.3862C3.2403 23.8227 3.78612 24.1634 4.38223 24.3888C4.97833 24.6142 5.61301 24.72 6.25 24.7C7.257 24.713 8.24446 24.4216 9.08309 23.864C9.92172 23.3064 10.5724 22.5086 10.95 21.575H12.675C13.1214 23.1675 14.0817 24.5678 15.4065 25.558C16.7313 26.5482 18.3462 27.0727 20 27.0499C20.9555 27.08 21.9075 26.9214 22.8017 26.5832C23.6958 26.2451 24.5146 25.734 25.2111 25.0793C25.9076 24.4246 26.4683 23.639 26.861 22.7674C27.2538 21.8959 27.4709 20.9555 27.5 20ZM31.55 6.89995C32.0039 6.85815 32.4559 6.99772 32.8073 7.28815C33.1586 7.57859 33.3807 7.99628 33.425 8.44995C33.3521 8.89468 33.1236 9.29903 32.7801 9.59079C32.4366 9.88256 32.0007 10.0427 31.55 10.0427C31.0993 10.0427 30.6634 9.88256 30.3199 9.59079C29.9764 9.29903 29.7479 8.89468 29.675 8.44995C29.7255 7.99888 29.9493 7.58507 30.2991 7.29587C30.649 7.00667 31.0975 6.86471 31.55 6.89995ZM6.25 21.575C5.79357 21.6098 5.34165 21.4644 4.99115 21.17C4.64064 20.8756 4.41945 20.4555 4.375 20C4.4255 19.5489 4.64929 19.1351 4.99913 18.8459C5.34896 18.5567 5.79748 18.4147 6.25 18.45C6.70252 18.4147 7.15104 18.5567 7.50087 18.8459C7.85071 19.1351 8.0745 19.5489 8.125 20C8.08055 20.4555 7.85936 20.8756 7.50885 21.17C7.15835 21.4644 6.70643 21.6098 6.25 21.575ZM20 23.9249C18.9006 23.9796 17.8241 23.5978 17.0048 22.8628C16.1855 22.1277 15.6896 21.0988 15.625 20C15.6895 18.9032 16.1862 17.8767 17.0063 17.1456C17.8265 16.4145 18.903 16.0385 20 16.1C21.0953 16.0451 22.1682 16.4235 22.9869 17.1532C23.8055 17.883 24.3041 18.9056 24.375 20C24.3041 21.0964 23.8063 22.1215 22.9885 22.8552C22.1706 23.589 21.0977 23.973 20 23.9249Z" fill="#2562A0"/>
<path id="Vector_2" d="M6.25 10.9499C6.95567 10.9545 7.65431 10.8097 8.3 10.5249L12.7 14.9999C13.3371 14.1491 14.115 13.4135 15 12.8249L10.65 8.44993C11.0399 7.78206 11.2468 7.02325 11.25 6.24993C11.2043 4.96782 10.6526 3.75603 9.71547 2.87984C8.77837 2.00365 7.53228 1.53444 6.25 1.57493C4.96772 1.53444 3.72163 2.00365 2.78453 2.87984C1.84743 3.75603 1.29565 4.96782 1.25 6.24993C1.2694 6.88693 1.41415 7.51387 1.67598 8.0949C1.93781 8.67594 2.31158 9.19967 2.77594 9.63616C3.2403 10.0727 3.78612 10.4134 4.38223 10.6388C4.97833 10.8642 5.61301 10.9699 6.25 10.9499ZM6.25 4.69993C6.70252 4.66469 7.15104 4.80665 7.50087 5.09585C7.85071 5.38504 8.0745 5.79885 8.125 6.24993C8.08055 6.70552 7.85936 7.12557 7.50885 7.41999C7.15835 7.71442 6.70643 7.85979 6.25 7.82493C5.79357 7.85979 5.34165 7.71442 4.99115 7.41999C4.64064 7.12557 4.41945 6.70552 4.375 6.24993C4.4255 5.79885 4.64929 5.38504 4.99913 5.09585C5.34896 4.80665 5.79748 4.66469 6.25 4.69993ZM33.75 29.0749C33.0443 29.0703 32.3457 29.2152 31.7 29.4999L27.3 24.9999C26.649 25.826 25.8629 26.5361 24.975 27.0999L29.325 31.4499C28.9428 32.1198 28.7444 32.8787 28.75 33.6499C28.75 34.976 29.2768 36.2478 30.2145 37.1855C31.1521 38.1231 32.4239 38.6499 33.75 38.6499C35.0761 38.6499 36.3479 38.1231 37.2855 37.1855C38.2232 36.2478 38.75 34.976 38.75 33.6499C38.6789 32.3855 38.116 31.1991 37.1817 30.3442C36.2474 29.4893 35.0157 29.0338 33.75 29.0749ZM33.75 35.3249C33.2936 35.3598 32.8417 35.2144 32.4911 34.92C32.1406 34.6256 31.9194 34.2055 31.875 33.7499C31.9479 33.3052 32.1764 32.9009 32.5199 32.6091C32.8634 32.3173 33.2993 32.1571 33.75 32.1571C34.2007 32.1571 34.6366 32.3173 34.9801 32.6091C35.3236 32.9009 35.5521 33.3052 35.625 33.7499C35.5806 34.2055 35.3594 34.6256 35.0089 34.92C34.6583 35.2144 34.2064 35.3598 33.75 35.3249Z" fill="#2562A0"/>
</g>
</svg>
