<svg width="40" height="40" viewBox="0 0 40 40" fill="none" xmlns="http://www.w3.org/2000/svg">
<g id="ri:oil-line">
<path id="Vector" d="M15.117 11.6667L10.0003 19.3434V33.3334H30.0003V11.6667H15.117ZM13.3337 8.33341H31.667C32.109 8.33341 32.5329 8.50901 32.8455 8.82157C33.1581 9.13413 33.3337 9.55805 33.3337 10.0001V35.0001C33.3337 35.4421 33.1581 35.866 32.8455 36.1786C32.5329 36.4912 32.109 36.6667 31.667 36.6667H8.33366C7.89163 36.6667 7.46771 36.4912 7.15515 36.1786C6.84259 35.866 6.66699 35.4421 6.66699 35.0001V18.3334L13.3337 8.33341ZM21.667 1.66675H30.0003C30.4424 1.66675 30.8663 1.84234 31.1788 2.1549C31.4914 2.46746 31.667 2.89139 31.667 3.33341V6.66675H20.0003V3.33341C20.0003 2.89139 20.1759 2.46746 20.4885 2.1549C20.801 1.84234 21.225 1.66675 21.667 1.66675ZM13.3337 20.0001H16.667V30.0001H13.3337V20.0001Z" fill="#2562A0"/>
</g>
</svg>
