<svg width="32" height="32" viewBox="0 0 32 32" fill="none" xmlns="http://www.w3.org/2000/svg">
<g id="vuesax/bold/like">
<g id="vuesax/bold/like_2">
<g id="like">
<path id="Vector" d="M11.1865 24.6533V11.1067C11.1865 10.5733 11.3465 10.0533 11.6399 9.61334L15.2799 4.20001C15.8532 3.33334 17.2799 2.72001 18.4932 3.17334C19.7999 3.61334 20.6665 5.08001 20.3865 6.38667L19.6932 10.7467C19.6399 11.1467 19.7465 11.5067 19.9732 11.7867C20.1999 12.04 20.5332 12.2 20.8932 12.2H26.3732C27.4265 12.2 28.3332 12.6267 28.8665 13.3733C29.3732 14.0933 29.4665 15.0267 29.1332 15.9733L25.8532 25.96C25.4399 27.6133 23.6399 28.96 21.8532 28.96H16.6532C15.7599 28.96 14.5065 28.6533 13.9332 28.08L12.2265 26.76C11.5732 26.2667 11.1865 25.48 11.1865 24.6533Z" fill="#2562A0"/>
<path id="Vector_2" d="M6.94699 8.50665H5.57366C3.50699 8.50665 2.66699 9.30665 2.66699 11.28V24.6933C2.66699 26.6667 3.50699 27.4667 5.57366 27.4667H6.94699C9.01366 27.4667 9.85366 26.6667 9.85366 24.6933V11.28C9.85366 9.30665 9.01366 8.50665 6.94699 8.50665Z" fill="#2562A0"/>
</g>
</g>
</g>
</svg>
